<svg width="268" height="24" viewBox="0 0 268 24" fill="none" xmlns="http://www.w3.org/2000/svg">
<g clip-path="url(#clip0_1132_7318)">
<path fill-rule="evenodd" clip-rule="evenodd" d="M46.6963 0H42.9488C42.7621 0.00169336 42.5924 0.0753545 42.4651 0.19389L34.9565 7.22811C32.3843 9.63946 28.9228 10.9933 25.1167 10.9933C21.1494 10.9933 17.5597 9.51499 14.9587 6.92246C14.9587 6.92246 9.43584 1.74755 9.38832 1.70098C8.32839 0.717138 6.86961 0.0372539 5.19018 0H0.706903C0.316537 0 0 0.315812 0 0.705285V20.4702C0 22.4209 1.58268 24 3.53706 24H4.90589H5.83089C6.2238 24 6.54204 23.6816 6.54204 23.2905L6.54373 16.2571C6.54373 14.419 8.04749 12.9026 9.86015 12.9026C13.2343 12.9026 15.6537 15.7864 17.8398 17.7126C20.5172 20.0723 22.5793 22.3456 25.1167 22.3456C27.6515 22.3456 29.7145 20.0723 32.392 17.7126C34.5789 15.7864 36.9983 12.9026 40.3707 12.9026C42.174 12.9026 43.6702 14.4037 43.688 16.2275V20.4702C43.688 22.4209 45.2715 23.9966 47.2267 23.9966H48.7534C49.1523 23.9966 49.5223 24 49.5223 24C49.9143 24 50.2326 23.6816 50.2326 23.2913C50.2326 23.2812 50.2326 3.69491 50.2326 3.52981C50.2326 1.57991 48.6482 0 46.6963 0Z" fill="#A5CD50"/>
</g>
<path d="M99.7027 0.0871376C100.605 0.0871376 101.513 0.0708289 102.415 0.0871376C104.862 0.146936 106.139 1.43533 106.188 3.90338C106.21 5.02324 106.552 6.3062 104.748 6.51277C104.177 6.57801 104.063 7.29559 104.063 7.85553C104.057 10.8835 104.073 13.9061 104.046 16.934C104.041 17.619 104.334 17.8038 104.938 17.7549C105.982 17.6679 106.253 18.2333 106.21 19.1738C106.156 20.3915 106.172 21.6146 106.204 22.8324C106.226 23.6369 105.9 23.9794 105.085 23.9685C103.008 23.9414 100.92 24.0175 98.8492 23.9359C96.2072 23.8326 94.3969 20.7938 95.4407 18.342C95.6255 17.9071 95.9898 17.7114 96.4192 17.7712C97.501 17.9289 97.5445 17.3146 97.5336 16.4883C97.4956 13.7321 97.5119 10.9759 97.5228 8.22519C97.5228 7.24667 97.3977 6.40949 96.1637 6.27358C95.5603 6.20834 95.3755 5.75714 95.3755 5.19177C95.3809 3.83814 95.3863 2.48452 95.3755 1.12546C95.37 0.386131 95.7125 0.0599564 96.4518 0.0762651C97.5391 0.0980101 98.6209 0.0817013 99.7081 0.0817013L99.7027 0.0871376Z" fill="#A5CD50"/>
<path fill-rule="evenodd" clip-rule="evenodd" d="M135.028 8.31522C135.025 9.16623 135.023 10.0174 135.023 10.8685C135.023 11.7736 135.02 12.6787 135.018 13.5837C135.012 15.7552 135.007 17.9258 135.034 20.0938C135.061 22.4314 136.246 23.8557 138.388 23.8937C138.529 23.8962 138.67 23.8988 138.81 23.9013C142.606 23.9698 146.411 24.0385 150.195 23.8393C154.871 23.5893 157.893 21.2191 158.926 17.4137C160.981 9.81928 155.713 1.71928 147.738 0.338477C145.395 -0.0691807 143.028 -0.0170285 140.661 0.0351374C139.271 0.0657536 137.881 0.0963745 136.496 0.0340476C135.36 -0.0148786 134.979 0.392839 135.001 1.5127C135.041 3.77803 135.034 6.04623 135.028 8.31522ZM144.014 17.8076C144.458 17.7477 144.875 17.6912 145.204 17.733V17.7384C145.723 17.7384 146.199 17.7444 146.646 17.75C147.55 17.7613 148.338 17.7712 149.124 17.7275C151.358 17.5971 152.793 15.9173 152.608 13.7319C152.331 10.4321 149.004 6.84419 145.764 6.34949C143.296 5.97439 141.785 7.00727 141.453 9.46989C141.282 10.7381 141.304 12.0409 141.325 13.3312C141.326 13.3959 141.327 13.4606 141.328 13.5253C141.335 13.9366 141.283 14.3861 141.232 14.8359C141.115 15.8547 140.998 16.875 141.556 17.4557C142.143 18.0605 143.13 17.9271 144.014 17.8076Z" fill="#A5CD50"/>
<path fill-rule="evenodd" clip-rule="evenodd" d="M69.2326 1.31398V10.9416C69.2326 11.9964 69.2338 13.0506 69.235 14.1046C69.2374 16.2121 69.2398 18.3187 69.2326 20.4278C69.2326 21.8195 69.7816 22.9013 71.0211 23.5373C72.0906 24.0943 73.2477 24.0231 74.3967 23.9524C74.6494 23.9368 74.9017 23.9213 75.1526 23.9124C75.7343 23.8961 75.7778 23.3525 75.7778 22.885C75.7793 22.5848 75.785 22.2838 75.7907 21.9826C75.8055 21.1981 75.8204 20.4118 75.7615 19.6341C75.6854 18.6393 75.9789 18.2914 77.0281 18.324C78.8763 18.3787 80.7302 18.3688 82.5836 18.3589C83.3087 18.355 84.0338 18.3512 84.7585 18.3512C85.7641 18.3512 86.2159 18.3283 86.42 18.542C86.6263 18.758 86.5795 19.2158 86.5959 20.1832C86.634 22.7599 87.8626 23.9233 90.4883 23.9614C90.6619 23.9655 90.8363 23.9617 91.0105 23.9578C91.2892 23.9516 91.5676 23.9455 91.8419 23.9722C92.7878 24.0592 93.152 23.6189 93.1357 22.711C93.121 21.8173 93.1225 20.9236 93.124 20.0299C93.1274 17.9445 93.1308 15.8592 92.9291 13.7738C92.2387 6.71217 87.357 1.30854 80.3877 0.264786C78.1274 -0.0751685 75.8382 -0.0133288 73.5473 0.0485557C72.3946 0.0796937 71.2415 0.110843 70.0915 0.0908263C69.232 0.0801491 69.2323 0.682869 69.2326 1.28116C69.2326 1.2921 69.2326 1.30304 69.2326 1.31398ZM79.5385 12.2692C79.9451 12.2721 80.3515 12.2751 80.7574 12.2751L80.7519 12.2805C81.234 12.2805 81.716 12.2787 82.198 12.2769C83.162 12.2733 84.126 12.2696 85.0901 12.2805C85.6065 12.2859 85.7968 12.2098 85.6174 11.5955C84.7258 8.5132 81.0999 6.00165 77.9142 6.32239C76.6748 6.44199 75.8539 7.25199 75.7832 8.52407C75.7554 9.00754 75.7603 9.49242 75.7652 9.97728C75.7699 10.441 75.7745 10.9048 75.7506 11.3672C75.7125 12.0848 75.9898 12.3077 76.6911 12.2859C77.6388 12.2555 78.5892 12.2624 79.5385 12.2692Z" fill="#A5CD50"/>
<path fill-rule="evenodd" clip-rule="evenodd" d="M108.613 1.37559V10.8618H108.624C108.624 11.8241 108.621 12.7863 108.618 13.7485C108.611 15.9937 108.604 18.2388 108.634 20.484C108.662 22.5171 109.901 23.8871 111.885 23.9197C112.096 23.9231 112.308 23.9266 112.519 23.9302C116.288 23.9928 120.065 24.0555 123.823 23.8599C128.286 23.6261 131.347 21.2777 132.364 17.7387C134.587 10.0083 129.39 1.77244 121.323 0.375324C118.783 -0.0639545 116.217 -0.00227975 113.652 0.0593907C112.281 0.0923565 110.909 0.125321 109.542 0.0817667C108.612 0.0551798 108.612 0.689133 108.613 1.33244C108.613 1.34682 108.613 1.36121 108.613 1.37559ZM115.158 12.1391C115.161 12.4852 115.163 12.8313 115.163 13.1774L115.158 13.1829C115.158 13.5267 115.159 13.8709 115.16 14.2153C115.164 15.1342 115.167 16.0545 115.147 16.9719C115.136 17.5536 115.348 17.7711 115.935 17.7656C116.821 17.7535 117.708 17.7564 118.595 17.7592C120.102 17.764 121.61 17.7688 123.117 17.7004C125.03 17.608 126.308 16.1076 126.34 14.1886C126.4 10.7203 122.801 6.67025 119.344 6.32777C116.762 6.07226 115.229 7.43132 115.163 10.0625C115.149 10.7547 115.154 11.4469 115.158 12.1391Z" fill="#A5CD50"/>
<path d="M186.172 10.5339C186.137 10.0814 185.968 9.72851 185.666 9.47511C185.37 9.22172 184.917 9.09502 184.31 9.09502C183.923 9.09502 183.606 9.14253 183.359 9.23756C183.116 9.32805 182.936 9.45249 182.819 9.61086C182.702 9.76923 182.641 9.95023 182.637 10.1538C182.628 10.3213 182.657 10.4729 182.724 10.6086C182.796 10.7398 182.909 10.8597 183.062 10.9683C183.215 11.0724 183.41 11.1674 183.649 11.2534C183.887 11.3394 184.171 11.4163 184.499 11.4842L185.633 11.7285C186.397 11.8914 187.052 12.1063 187.596 12.3733C188.141 12.6403 188.586 12.9548 188.932 13.3167C189.279 13.6742 189.533 14.0769 189.695 14.5249C189.861 14.9729 189.947 15.4615 189.951 15.991C189.947 16.905 189.72 17.6787 189.27 18.3122C188.82 18.9457 188.177 19.4276 187.34 19.7579C186.508 20.0882 185.507 20.2534 184.337 20.2534C183.136 20.2534 182.088 20.0747 181.193 19.7172C180.302 19.3597 179.609 18.81 179.114 18.0679C178.624 17.3213 178.377 16.3665 178.372 15.2036H181.935C181.957 15.629 182.063 15.9864 182.252 16.276C182.441 16.5656 182.706 16.7851 183.048 16.9344C183.395 17.0837 183.806 17.1584 184.283 17.1584C184.684 17.1584 185.019 17.1086 185.289 17.009C185.558 16.9095 185.763 16.7715 185.903 16.595C186.042 16.4186 186.114 16.2172 186.119 15.991C186.114 15.7783 186.044 15.5928 185.909 15.4344C185.779 15.2715 185.563 15.1267 185.262 15C184.96 14.8688 184.553 14.7466 184.04 14.6335L182.664 14.3348C181.44 14.0679 180.475 13.6222 179.769 12.9977C179.067 12.3688 178.719 11.5113 178.723 10.4253C178.719 9.54299 178.952 8.77149 179.425 8.11086C179.902 7.4457 180.561 6.9276 181.402 6.55656C182.248 6.18552 183.217 6 184.31 6C185.426 6 186.391 6.18778 187.205 6.56335C188.019 6.93891 188.647 7.46833 189.087 8.15158C189.533 8.83032 189.758 9.62443 189.762 10.5339H186.172Z" fill="#A5CD50"/>
<path d="M193.7 24C193.272 24 192.865 23.9661 192.478 23.8982C192.091 23.8348 191.752 23.7466 191.459 23.6335L192.269 20.9729C192.575 21.0814 192.854 21.1516 193.106 21.1833C193.362 21.2149 193.58 21.1968 193.76 21.129C193.945 21.0611 194.077 20.9321 194.158 20.7421L194.239 20.552L190.596 9.66516H194.482L196.156 16.8869H196.264L197.964 9.66516H201.878L198.099 20.9593C197.91 21.5339 197.636 22.0498 197.276 22.5068C196.92 22.9683 196.453 23.3326 195.872 23.5995C195.292 23.8665 194.568 24 193.7 24Z" fill="#A5CD50"/>
<path d="M206.662 14.2262V20.0905H202.937V9.66516H206.473V11.6471H206.581C206.806 10.9864 207.202 10.4683 207.768 10.0928C208.34 9.71719 209.005 9.52941 209.766 9.52941C210.499 9.52941 211.135 9.6991 211.675 10.0385C212.22 10.3733 212.64 10.8348 212.937 11.4231C213.239 12.0113 213.387 12.6833 213.382 13.4389V20.0905H209.658V14.2262C209.662 13.7104 209.532 13.3054 209.266 13.0113C209.005 12.7172 208.641 12.5701 208.173 12.5701C207.867 12.5701 207.6 12.638 207.37 12.7738C207.145 12.905 206.972 13.095 206.851 13.3439C206.729 13.5882 206.666 13.8824 206.662 14.2262Z" fill="#A5CD50"/>
<path d="M228.069 11.4027H224.263C224.236 11.086 224.164 10.7986 224.047 10.5407C223.935 10.2828 223.777 10.0611 223.575 9.87557C223.377 9.68552 223.136 9.54072 222.853 9.44118C222.569 9.3371 222.248 9.28507 221.888 9.28507C221.258 9.28507 220.725 9.43891 220.289 9.74661C219.857 10.0543 219.528 10.4955 219.304 11.0701C219.083 11.6448 218.973 12.3348 218.973 13.1403C218.973 13.991 219.085 14.7036 219.31 15.2783C219.54 15.8484 219.87 16.2783 220.302 16.5679C220.734 16.8529 221.254 16.9955 221.861 16.9955C222.207 16.9955 222.518 16.9525 222.792 16.8665C223.066 16.776 223.305 16.6471 223.507 16.4796C223.71 16.3122 223.874 16.1109 224 15.8756C224.13 15.6357 224.218 15.3665 224.263 15.0679L228.069 15.095C228.024 15.6833 227.86 16.2828 227.576 16.8937C227.293 17.5 226.89 18.0611 226.368 18.5769C225.851 19.0882 225.21 19.5 224.445 19.8122C223.681 20.1244 222.792 20.2805 221.78 20.2805C220.511 20.2805 219.373 20.0068 218.366 19.4593C217.362 18.9118 216.568 18.1063 215.984 17.043C215.403 15.9796 215.113 14.6787 215.113 13.1403C215.113 11.5928 215.41 10.2896 216.004 9.23077C216.598 8.16742 217.398 7.36425 218.406 6.82127C219.414 6.27376 220.538 6 221.78 6C222.653 6 223.456 6.11991 224.189 6.35973C224.922 6.59955 225.565 6.95023 226.119 7.41176C226.672 7.86878 227.117 8.43213 227.455 9.10181C227.792 9.77149 227.997 10.5385 228.069 11.4027Z" fill="#A5CD50"/>
<path d="M234.818 20.2805C233.693 20.2805 232.731 20.0566 231.93 19.6086C231.129 19.1561 230.515 18.5271 230.088 17.7217C229.661 16.9118 229.447 15.9729 229.447 14.905C229.447 13.8371 229.661 12.9005 230.088 12.095C230.515 11.2851 231.129 10.6561 231.93 10.2081C232.731 9.75566 233.693 9.52941 234.818 9.52941C235.943 9.52941 236.905 9.75566 237.706 10.2081C238.507 10.6561 239.121 11.2851 239.548 12.095C239.976 12.9005 240.189 13.8371 240.189 14.905C240.189 15.9729 239.976 16.9118 239.548 17.7217C239.121 18.5271 238.507 19.1561 237.706 19.6086C236.905 20.0566 235.943 20.2805 234.818 20.2805ZM234.845 17.5113C235.16 17.5113 235.432 17.405 235.662 17.1923C235.891 16.9796 236.069 16.6765 236.195 16.2828C236.321 15.8891 236.384 15.4208 236.384 14.8778C236.384 14.3303 236.321 13.862 236.195 13.4729C236.069 13.0792 235.891 12.776 235.662 12.5633C235.432 12.3507 235.16 12.2443 234.845 12.2443C234.512 12.2443 234.227 12.3507 233.988 12.5633C233.75 12.776 233.568 13.0792 233.442 13.4729C233.316 13.862 233.253 14.3303 233.253 14.8778C233.253 15.4208 233.316 15.8891 233.442 16.2828C233.568 16.6765 233.75 16.9796 233.988 17.1923C234.227 17.405 234.512 17.5113 234.845 17.5113Z" fill="#A5CD50"/>
<path d="M255.034 13.1403C255.034 14.6878 254.735 15.9932 254.137 17.0566C253.538 18.1154 252.731 18.9186 251.714 19.4661C250.698 20.0091 249.564 20.2805 248.313 20.2805C247.054 20.2805 245.916 20.0068 244.899 19.4593C243.887 18.9072 243.082 18.1018 242.483 17.043C241.89 15.9796 241.593 14.6787 241.593 13.1403C241.593 11.5928 241.89 10.2896 242.483 9.23077C243.082 8.16742 243.887 7.36425 244.899 6.82127C245.916 6.27376 247.054 6 248.313 6C249.564 6 250.698 6.27376 251.714 6.82127C252.731 7.36425 253.538 8.16742 254.137 9.23077C254.735 10.2896 255.034 11.5928 255.034 13.1403ZM251.174 13.1403C251.174 12.3077 251.064 11.6063 250.844 11.0362C250.628 10.4615 250.306 10.0271 249.879 9.73303C249.456 9.43439 248.934 9.28507 248.313 9.28507C247.693 9.28507 247.169 9.43439 246.741 9.73303C246.318 10.0271 245.997 10.4615 245.776 11.0362C245.56 11.6063 245.452 12.3077 245.452 13.1403C245.452 13.9729 245.56 14.6765 245.776 15.2511C245.997 15.8213 246.318 16.2557 246.741 16.5543C247.169 16.8484 247.693 16.9955 248.313 16.9955C248.934 16.9955 249.456 16.8484 249.879 16.5543C250.306 16.2557 250.628 15.8213 250.844 15.2511C251.064 14.6765 251.174 13.9729 251.174 13.1403Z" fill="#A5CD50"/>
<path d="M256.824 24V9.66516H260.522V11.4842H260.603C260.738 11.1312 260.935 10.8077 261.196 10.5136C261.457 10.2149 261.781 9.97738 262.168 9.8009C262.555 9.61991 263.005 9.52941 263.518 9.52941C264.201 9.52941 264.851 9.71267 265.468 10.0792C266.088 10.4457 266.592 11.0226 266.979 11.81C267.371 12.5973 267.566 13.6199 267.566 14.8778C267.566 16.0814 267.38 17.0792 267.006 17.871C266.637 18.6629 266.142 19.2534 265.522 19.6425C264.905 20.0317 264.228 20.2262 263.491 20.2262C263.005 20.2262 262.571 20.1471 262.188 19.9887C261.81 19.8258 261.487 19.6063 261.217 19.3303C260.951 19.0498 260.747 18.733 260.603 18.3801H260.549V24H256.824ZM260.468 14.8778C260.468 15.3846 260.533 15.8235 260.663 16.1946C260.798 16.5611 260.987 16.8462 261.23 17.0498C261.478 17.2489 261.772 17.3484 262.114 17.3484C262.456 17.3484 262.746 17.2511 262.985 17.0566C263.227 16.8575 263.412 16.5747 263.538 16.2081C263.668 15.8371 263.734 15.3937 263.734 14.8778C263.734 14.362 263.668 13.9208 263.538 13.5543C263.412 13.1833 263.227 12.9005 262.985 12.7059C262.746 12.5068 262.456 12.4072 262.114 12.4072C261.772 12.4072 261.478 12.5068 261.23 12.7059C260.987 12.9005 260.798 13.1833 260.663 13.5543C260.533 13.9208 260.468 14.362 260.468 14.8778Z" fill="#A5CD50"/>
<defs>
<clipPath id="clip0_1132_7318">
<rect width="50.2326" height="24" fill="white"/>
</clipPath>
</defs>
</svg>
