<svg width="213" height="127" viewBox="0 0 213 127" fill="none" xmlns="http://www.w3.org/2000/svg">
<path d="M72.001 0.815194C74.1334 0.815194 76.2786 0.774858 78.411 0.815194C84.1917 0.963093 87.2104 4.14963 87.326 10.2538C87.3774 13.0235 88.1867 16.1966 83.9219 16.7076C82.5731 16.8689 82.3033 18.6437 82.3033 20.0285C82.2905 27.5176 82.329 34.9932 82.2648 42.4822C82.2519 44.1763 82.9456 44.6335 84.3715 44.5125C86.8379 44.2973 87.4802 45.6957 87.3774 48.0217C87.249 51.0334 87.2875 54.0586 87.3646 57.0704C87.416 59.0603 86.6452 59.9074 84.7183 59.8805C79.8112 59.8132 74.8784 60.0015 69.9842 59.7998C63.7411 59.5443 59.4634 52.0284 61.9298 45.9646C62.3666 44.8889 63.2272 44.4049 64.2421 44.5528C66.7984 44.9427 66.9012 43.4234 66.8755 41.3797C66.7855 34.5629 66.8241 27.7462 66.8498 20.9428C66.8498 18.5227 66.5543 16.4521 63.6383 16.116C62.2124 15.9546 61.7757 14.8387 61.7757 13.4403C61.7885 10.0925 61.8014 6.74458 61.7757 3.38325C61.7628 1.55469 62.5721 0.747968 64.3191 0.788303C66.8883 0.842085 69.4446 0.801749 72.0138 0.801749L72.001 0.815194Z" fill="#A5CD50"/>
<path fill-rule="evenodd" clip-rule="evenodd" d="M155.474 21.1658C155.468 23.2706 155.463 25.3756 155.463 27.4807C155.463 29.7194 155.457 31.958 155.452 34.1963C155.438 39.5669 155.425 44.9355 155.488 50.2974C155.553 56.0789 158.353 59.6016 163.414 59.6957C163.747 59.7019 164.08 59.7082 164.413 59.7145C173.382 59.884 182.373 60.0539 191.315 59.5612C202.363 58.9427 209.505 53.0806 211.946 43.6689C216.802 24.8858 204.354 4.85223 185.509 1.43712C179.972 0.428873 174.379 0.557859 168.785 0.68688C165.501 0.762602 162.217 0.838336 158.944 0.684185C156.259 0.563177 155.36 1.57158 155.411 4.34131C155.505 9.94408 155.489 15.554 155.474 21.1658ZM176.71 44.6431C177.758 44.495 178.745 44.3554 179.521 44.4586V44.4721C180.746 44.4721 181.871 44.4868 182.929 44.5007C185.066 44.5287 186.927 44.5531 188.783 44.4452C194.062 44.1225 197.454 39.9679 197.017 34.5629C196.362 26.4016 188.5 17.5277 180.844 16.3042C175.012 15.3764 171.441 17.931 170.657 24.0218C170.254 27.1585 170.304 30.3805 170.354 33.5718C170.357 33.732 170.359 33.892 170.362 34.052C170.377 35.0691 170.256 36.1808 170.134 37.2933C169.858 39.813 169.582 42.3365 170.901 43.7729C172.287 45.2686 174.62 44.9387 176.71 44.6431Z" fill="#A5CD50"/>
<path fill-rule="evenodd" clip-rule="evenodd" d="M-7.23265e-05 3.84981V27.6615C-7.23265e-05 30.2704 0.0027834 32.8778 0.00563857 35.4846C0.0113473 40.6969 0.0170538 45.9073 -7.23265e-05 51.1235C-7.23265e-05 54.5655 1.29736 57.2412 4.22621 58.8143C6.75335 60.1919 9.48765 60.0157 12.2027 59.8407C12.7999 59.8022 13.3961 59.7638 13.9891 59.742C15.3636 59.7016 15.4663 58.3571 15.4663 57.2008C15.4699 56.4585 15.4833 55.714 15.4968 54.9689C15.5319 53.0286 15.567 51.0841 15.4278 49.1605C15.2479 46.7 15.9416 45.8395 18.4209 45.9202C22.7882 46.0555 27.1688 46.031 31.5484 46.0066C33.2619 45.997 34.9753 45.9874 36.6877 45.9874C39.033 45.9874 40.1035 45.9324 40.5947 46.439C41.1043 46.9646 40.9903 48.0948 41.0295 50.5185C41.1195 56.8916 44.0226 59.7689 50.2272 59.863C50.6374 59.8733 51.0495 59.8638 51.4613 59.8542C52.1199 59.839 52.7777 59.8237 53.4258 59.8899C55.661 60.105 56.5216 59.0159 56.4831 56.7706C56.4484 54.5602 56.4519 52.3498 56.4554 50.1394C56.4634 44.9817 56.4715 39.8241 55.995 34.6665C54.3635 17.201 42.828 3.83636 26.3596 1.25486C21.0184 0.414063 15.609 0.56701 10.1957 0.720067C7.47192 0.79708 4.74715 0.874121 2.02957 0.824614C-0.00146194 0.798206 -0.00077705 2.2889 -9.71942e-05 3.76864C-8.47595e-05 3.7957 -7.23265e-05 3.82276 -7.23265e-05 3.84981ZM24.3531 30.945C25.3139 30.9522 26.2741 30.9595 27.2333 30.9595L27.2204 30.9729C28.3594 30.9729 29.4984 30.9685 30.6374 30.964C32.9154 30.955 35.1934 30.946 37.4714 30.9729C38.6917 30.9864 39.1413 30.7981 38.7174 29.2788C36.6107 21.6553 28.0425 15.4436 20.5149 16.2369C17.586 16.5327 15.6463 18.536 15.4793 21.6822C15.4137 22.878 15.4252 24.0772 15.4367 25.2764C15.4477 26.4234 15.4588 27.5704 15.4022 28.7141C15.3123 30.4889 15.9675 31.0402 17.6246 30.9864C19.8641 30.9111 22.1099 30.928 24.3531 30.945Z" fill="#A5CD50"/>
<path fill-rule="evenodd" clip-rule="evenodd" d="M93.0553 4.00189V27.464H93.081C93.081 29.8438 93.074 32.2237 93.0671 34.6036C93.0509 40.1565 93.0347 45.7093 93.1067 51.2622C93.1709 56.2907 96.0997 59.6789 100.788 59.7596C101.287 59.7682 101.787 59.7768 102.286 59.7855C111.192 59.9404 120.118 60.0955 128.998 59.6117C139.544 59.0336 146.777 53.2252 149.179 44.4723C154.433 25.3531 142.152 4.9834 123.089 1.52795C117.087 0.441497 111.025 0.594035 104.963 0.746563C101.723 0.828097 98.4827 0.909627 95.2519 0.801905C93.053 0.736148 93.0541 2.30409 93.0552 3.89517C93.0553 3.93074 93.0553 3.96632 93.0553 4.00189ZM108.523 30.6229C108.529 31.4789 108.534 32.3349 108.534 33.191L108.522 33.2044C108.522 34.0547 108.525 34.906 108.527 35.7578C108.535 38.0307 108.543 40.3068 108.496 42.5758C108.47 44.0144 108.971 44.5522 110.359 44.5388C112.452 44.5089 114.547 44.5159 116.643 44.5229C120.205 44.5349 123.769 44.5468 127.328 44.3775C131.85 44.1489 134.868 40.438 134.946 35.6918C135.087 27.1137 126.583 17.0969 118.413 16.2499C112.311 15.6179 108.689 18.9793 108.534 25.4868C108.5 27.1988 108.512 28.9109 108.523 30.6229Z" fill="#A5CD50"/>
<path d="M18.4526 95.5792C18.3675 94.5234 17.9684 93.6999 17.2554 93.1086C16.5531 92.5173 15.4836 92.2217 14.047 92.2217C13.1318 92.2217 12.3816 92.3326 11.7963 92.5543C11.2216 92.7655 10.796 93.0558 10.5193 93.4253C10.2426 93.7949 10.0989 94.2172 10.0883 94.6923C10.067 95.083 10.1362 95.4367 10.2958 95.7534C10.4661 96.0596 10.7321 96.3394 11.0939 96.5928C11.4557 96.8356 11.9186 97.0573 12.4827 97.2579C13.0467 97.4585 13.7171 97.638 14.4939 97.7964L17.1756 98.3665C18.9847 98.7466 20.5331 99.2481 21.8207 99.871C23.1083 100.494 24.1619 101.228 24.9813 102.072C25.8007 102.906 26.4019 103.846 26.785 104.891C27.1788 105.937 27.381 107.077 27.3916 108.312C27.381 110.445 26.8436 112.25 25.7794 113.729C24.7152 115.207 23.1935 116.331 21.2141 117.102C19.2454 117.873 16.8777 118.258 14.1108 118.258C11.2695 118.258 8.79 117.841 6.67232 117.007C4.56527 116.173 2.92645 114.89 1.75587 113.158C0.595932 111.416 0.0106416 109.189 0 106.475H8.42819C8.4814 107.468 8.73148 108.302 9.17842 108.977C9.62537 109.653 10.2532 110.165 11.062 110.514C11.8814 110.862 12.8551 111.036 13.9831 111.036C14.9302 111.036 15.723 110.92 16.3615 110.688C17 110.456 17.4842 110.133 17.8141 109.722C18.144 109.31 18.3143 108.84 18.3249 108.312C18.3143 107.816 18.1493 107.383 17.8301 107.014C17.5215 106.633 17.0107 106.296 16.2977 106C15.5847 105.694 14.6216 105.409 13.4085 105.145L10.1521 104.448C7.25761 103.825 4.97497 102.785 3.30423 101.328C1.64413 99.8605 0.819407 97.8597 0.830049 95.3258C0.819407 93.267 1.37277 91.4668 2.49015 89.9253C3.61816 88.3733 5.17716 87.1644 7.16715 86.2986C9.16778 85.4329 11.4611 85 14.047 85C16.6861 85 18.9687 85.4382 20.8949 86.3145C22.821 87.1908 24.3055 88.4261 25.3484 90.0204C26.4019 91.6041 26.934 93.457 26.9447 95.5792H18.4526Z" fill="#A5CD50"/>
<path d="M36.2588 127C35.2478 127 34.2847 126.921 33.3696 126.762C32.4544 126.615 31.6509 126.409 30.9592 126.145L32.8747 119.937C33.5984 120.19 34.2581 120.354 34.8541 120.428C35.4606 120.502 35.9768 120.459 36.4024 120.301C36.8387 120.143 37.1527 119.842 37.3442 119.398L37.5358 118.955L28.916 93.552H38.1104L42.0691 110.403H42.3245L46.347 93.552H55.6053L46.6663 119.905C46.2193 121.246 45.5702 122.449 44.7189 123.516C43.8782 124.593 42.7715 125.443 41.3987 126.066C40.0259 126.689 38.3126 127 36.2588 127Z" fill="#A5CD50"/>
<path d="M66.9227 104.195V117.878H58.1114V93.552H66.4757V98.1765H66.7311C67.2632 96.635 68.1997 95.4261 69.5405 94.5498C70.892 93.6735 72.467 93.2353 74.2654 93.2353C76 93.2353 77.5058 93.6312 78.7828 94.4231C80.0704 95.2044 81.0654 96.2813 81.7678 97.6538C82.4808 99.0264 82.832 100.594 82.8213 102.357V117.878H74.01V104.195C74.0207 102.991 73.7121 102.046 73.0842 101.36C72.467 100.673 71.605 100.33 70.4983 100.33C69.7746 100.33 69.1415 100.489 68.5987 100.805C68.0667 101.112 67.657 101.555 67.3696 102.136C67.0823 102.706 66.9333 103.392 66.9227 104.195Z" fill="#A5CD50"/>
<path d="M117.564 97.6063H108.561C108.497 96.8673 108.327 96.1968 108.05 95.595C107.784 94.9932 107.411 94.4759 106.933 94.043C106.464 93.5995 105.895 93.2617 105.225 93.0294C104.554 92.7866 103.793 92.6652 102.942 92.6652C101.452 92.6652 100.191 93.0241 99.1589 93.7421C98.1373 94.46 97.3605 95.4894 96.8284 96.8303C96.3069 98.1712 96.0462 99.7813 96.0462 101.661C96.0462 103.646 96.3123 105.308 96.8443 106.649C97.3871 107.98 98.1692 108.983 99.1908 109.658C100.212 110.324 101.442 110.656 102.878 110.656C103.698 110.656 104.432 110.556 105.081 110.355C105.73 110.144 106.294 109.843 106.773 109.452C107.252 109.062 107.64 108.592 107.938 108.043C108.247 107.483 108.454 106.855 108.561 106.158L117.564 106.222C117.457 107.594 117.069 108.993 116.398 110.419C115.728 111.833 114.776 113.143 113.541 114.346C112.317 115.539 110.801 116.5 108.992 117.229C107.183 117.957 105.081 118.321 102.687 118.321C99.6857 118.321 96.9933 117.682 94.6096 116.405C92.2365 115.127 90.3583 113.248 88.9748 110.767C87.6021 108.286 86.9157 105.25 86.9157 101.661C86.9157 98.0498 87.618 95.009 89.0227 92.5385C90.4274 90.0573 92.3216 88.1833 94.7054 86.9163C97.0891 85.6388 99.7495 85 102.687 85C104.751 85 106.651 85.2798 108.385 85.8394C110.12 86.3989 111.642 87.2172 112.95 88.2941C114.259 89.3605 115.313 90.675 116.111 92.2376C116.909 93.8002 117.393 95.5897 117.564 97.6063Z" fill="#A5CD50"/>
<path d="M133.53 118.321C130.87 118.321 128.592 117.799 126.698 116.753C124.804 115.698 123.351 114.23 122.34 112.351C121.329 110.461 120.824 108.27 120.824 105.778C120.824 103.287 121.329 101.101 122.34 99.2217C123.351 97.3318 124.804 95.8643 126.698 94.819C128.592 93.7632 130.87 93.2353 133.53 93.2353C136.191 93.2353 138.468 93.7632 140.362 94.819C142.256 95.8643 143.709 97.3318 144.72 99.2217C145.731 101.101 146.236 103.287 146.236 105.778C146.236 108.27 145.731 110.461 144.72 112.351C143.709 114.23 142.256 115.698 140.362 116.753C138.468 117.799 136.191 118.321 133.53 118.321ZM133.594 111.86C134.339 111.86 134.983 111.612 135.525 111.115C136.068 110.619 136.488 109.912 136.786 108.993C137.084 108.075 137.233 106.982 137.233 105.715C137.233 104.437 137.084 103.345 136.786 102.437C136.488 101.518 136.068 100.811 135.525 100.314C134.983 99.8182 134.339 99.5701 133.594 99.5701C132.806 99.5701 132.131 99.8182 131.567 100.314C131.003 100.811 130.572 101.518 130.274 102.437C129.976 103.345 129.827 104.437 129.827 105.715C129.827 106.982 129.976 108.075 130.274 108.993C130.572 109.912 131.003 110.619 131.567 111.115C132.131 111.612 132.806 111.86 133.594 111.86Z" fill="#A5CD50"/>
<path d="M181.354 101.661C181.354 105.271 180.646 108.317 179.231 110.799C177.815 113.269 175.905 115.143 173.5 116.421C171.095 117.688 168.413 118.321 165.455 118.321C162.475 118.321 159.783 117.682 157.378 116.405C154.984 115.117 153.079 113.238 151.663 110.767C150.259 108.286 149.556 105.25 149.556 101.661C149.556 98.0498 150.259 95.009 151.663 92.5385C153.079 90.0573 154.984 88.1833 157.378 86.9163C159.783 85.6388 162.475 85 165.455 85C168.413 85 171.095 85.6388 173.5 86.9163C175.905 88.1833 177.815 90.0573 179.231 92.5385C180.646 95.009 181.354 98.0498 181.354 101.661ZM172.223 101.661C172.223 99.7179 171.962 98.0814 171.441 96.7511C170.93 95.4103 170.169 94.3967 169.158 93.7104C168.158 93.0136 166.924 92.6652 165.455 92.6652C163.987 92.6652 162.747 93.0136 161.736 93.7104C160.735 94.3967 159.975 95.4103 159.453 96.7511C158.942 98.0814 158.687 99.7179 158.687 101.661C158.687 103.603 158.942 105.245 159.453 106.586C159.975 107.916 160.735 108.93 161.736 109.627C162.747 110.313 163.987 110.656 165.455 110.656C166.924 110.656 168.158 110.313 169.158 109.627C170.169 108.93 170.93 107.916 171.441 106.586C171.962 105.245 172.223 103.603 172.223 101.661Z" fill="#A5CD50"/>
<path d="M185.588 127V93.552H194.335V97.7964H194.527C194.846 96.9729 195.314 96.2179 195.931 95.5317C196.549 94.8348 197.315 94.2805 198.23 93.8688C199.145 93.4465 200.209 93.2353 201.423 93.2353C203.04 93.2353 204.578 93.6629 206.036 94.5181C207.504 95.3733 208.696 96.7195 209.611 98.5566C210.537 100.394 211 102.78 211 105.715C211 108.523 210.558 110.851 209.675 112.699C208.803 114.547 207.632 115.925 206.163 116.833C204.705 117.741 203.104 118.195 201.359 118.195C200.209 118.195 199.182 118.01 198.278 117.64C197.384 117.26 196.618 116.748 195.979 116.104C195.351 115.449 194.867 114.71 194.527 113.887H194.399V127H185.588ZM194.207 105.715C194.207 106.897 194.362 107.922 194.67 108.787C194.99 109.643 195.437 110.308 196.011 110.783C196.597 111.247 197.294 111.48 198.102 111.48C198.911 111.48 199.597 111.253 200.161 110.799C200.736 110.334 201.172 109.674 201.47 108.819C201.779 107.953 201.933 106.919 201.933 105.715C201.933 104.511 201.779 103.482 201.47 102.627C201.172 101.761 200.736 101.101 200.161 100.647C199.597 100.183 198.911 99.9502 198.102 99.9502C197.294 99.9502 196.597 100.183 196.011 100.647C195.437 101.101 194.99 101.761 194.67 102.627C194.362 103.482 194.207 104.511 194.207 105.715Z" fill="#A5CD50"/>
</svg>
