<svg width="25" height="24" viewBox="0 0 25 24" fill="none" xmlns="http://www.w3.org/2000/svg">
<path fill-rule="evenodd" clip-rule="evenodd" d="M10.5923 20.1313C10.5373 20.1919 10.526 20.2488 10.5499 20.3171C10.6666 20.6508 10.8632 20.9639 11.1511 21.2566C11.6431 21.7569 12.2223 22 12.9165 22C13.6107 22 14.1899 21.7569 14.682 21.2566C14.9698 20.9639 15.1664 20.6508 15.2831 20.3171C15.307 20.2488 15.2957 20.1919 15.2407 20.1313C15.1766 20.0605 15.0583 20 14.9165 20H10.9165C10.7747 20 10.6564 20.0605 10.5923 20.1313ZM9.85119 19.4598C10.1139 19.1699 10.506 19 10.9165 19H14.9165C15.327 19 15.7192 19.1699 15.9818 19.4598C16.2537 19.7599 16.3855 20.1941 16.2271 20.6471C16.0571 21.1333 15.7759 21.5703 15.395 21.9577C14.7163 22.6478 13.8808 23 12.9165 23C11.9522 23 11.1167 22.6478 10.4381 21.9577C10.0571 21.5703 9.77593 21.1333 9.60592 20.6471C9.44748 20.1941 9.57932 19.7599 9.85119 19.4598ZM12.9165 2C12.5782 2 12.3526 2.10051 12.1875 2.26953C12.0084 2.45277 11.9193 2.66818 11.9193 2.94687C11.9193 3.59897 11.4712 4.12108 10.9086 4.31354C9.84551 4.67724 8.9464 5.29807 8.20488 6.18472C7.32928 7.2317 6.89662 8.41759 6.89662 9.76118V13.3714C6.89662 14.5995 6.40556 15.7767 5.53279 16.6407L4.97331 17.1946C4.93696 17.2305 4.9165 17.2796 4.9165 17.3307C4.9165 17.4366 5.00229 17.5224 5.10812 17.5224H20.7249C20.8307 17.5224 20.9165 17.4366 20.9165 17.3307C20.9165 17.2796 20.896 17.2305 20.8597 17.1946L20.3002 16.6407C19.4274 15.7767 18.9364 14.5995 18.9364 13.3714V9.76118C18.9364 8.41759 18.5037 7.2317 17.6281 6.18472C16.8866 5.29807 15.9875 4.67724 14.9244 4.31354C14.3618 4.12108 13.9137 3.59897 13.9137 2.94687C13.9137 2.66818 13.8246 2.45277 13.6456 2.26953C13.4804 2.10051 13.2548 2 12.9165 2ZM11.4723 1.57059C11.8544 1.17953 12.3533 1 12.9165 1C13.4797 1 13.9786 1.17953 14.3607 1.57059C14.729 1.94743 14.9137 2.41656 14.9137 2.94687C14.9137 3.11533 15.0343 3.29423 15.2481 3.36738C16.4882 3.79162 17.5393 4.51977 18.3952 5.54319C19.4193 6.76765 19.9364 8.17989 19.9364 9.76118V13.3714C19.9364 14.3326 20.3207 15.2538 21.0038 15.93L21.5632 16.4839C21.7893 16.7077 21.9165 17.0126 21.9165 17.3307C21.9165 17.9888 21.383 18.5224 20.7249 18.5224H5.10812C4.45001 18.5224 3.9165 17.9888 3.9165 17.3307C3.9165 17.0126 4.0437 16.7077 4.26977 16.4839L4.82925 15.93C5.5123 15.2538 5.89662 14.3326 5.89662 13.3714V9.76118C5.89662 8.17989 6.41376 6.76765 7.43779 5.54319C8.29368 4.51977 9.34484 3.79162 10.5849 3.36738C10.7987 3.29423 10.9193 3.11533 10.9193 2.94687C10.9193 2.41656 11.104 1.94743 11.4723 1.57059Z" fill="white"/>
</svg>
