<svg width="24" height="24" viewBox="0 0 24 24" fill="none" xmlns="http://www.w3.org/2000/svg">
<g id="Pen">
<path id="Vector" d="M5.99948 16.458L5.15413 16.458C4.92469 16.458 4.7247 16.6142 4.66906 16.8367L4.03014 19.3924C3.94067 19.7495 4.05778 20.084 4.28372 20.3092C4.5089 20.5352 4.84341 20.652 5.19978 20.5628L7.75617 19.9239C7.97877 19.8682 8.13493 19.6682 8.13493 19.4388L8.13493 18.5932C8.13493 17.416 7.17691 16.458 5.99948 16.458Z" fill="#0F69AF"/>
<path id="Rectangle 2751" d="M16.7035 4.02456C17.8216 2.90643 19.6345 2.90643 20.7526 4.02456C21.8707 5.14269 21.8707 6.95554 20.7526 8.07368L10.4166 18.4096C10.2797 18.5466 10.0455 18.4511 10.0433 18.2575L10.04 17.9756C10.0183 16.0822 8.42042 14.59 6.52991 14.6977C6.34436 14.7083 6.24393 14.4841 6.37534 14.3527L16.7035 4.02456Z" fill="#0F69AF"/>
</g>
</svg>
