<svg width="20" height="20" viewBox="0 0 20 20" fill="none" xmlns="http://www.w3.org/2000/svg">
<path d="M9.20101 13.0714V10.1327H10.0461C10.7672 10.1327 11.3362 9.94218 11.7531 9.56122C12.1813 9.16939 12.3954 8.65238 12.3954 8.0102C12.3954 7.36803 12.1813 6.85646 11.7531 6.47551C11.3362 6.08367 10.7616 5.88775 10.0292 5.88775H7.9165V4.5H10.0292C10.8179 4.5 11.4996 4.64694 12.0743 4.94082C12.6602 5.22381 13.1109 5.62653 13.4264 6.14898C13.7531 6.67143 13.9165 7.29184 13.9165 8.0102C13.9165 8.63061 13.7813 9.19116 13.5109 9.69184C13.2404 10.1816 12.863 10.5735 12.3785 10.8673C11.9052 11.1612 11.3531 11.3245 10.7221 11.3571V13.0714H9.20101ZM9.69115 16.5C9.39819 16.5 9.15594 16.4075 8.96439 16.2224C8.77284 16.0374 8.67707 15.8034 8.67707 15.5204C8.67707 15.2374 8.77284 15.0034 8.96439 14.8184C9.15594 14.6333 9.39819 14.5408 9.69115 14.5408H10.1982C10.525 14.5408 10.7728 14.6333 10.9419 14.8184C11.1221 14.9925 11.2123 15.2211 11.2123 15.5041C11.2123 15.7871 11.1165 16.0265 10.925 16.2224C10.7334 16.4075 10.4912 16.5 10.1982 16.5H9.69115Z" fill="white"/>
<circle cx="10.4165" cy="10" r="8.9" stroke="white" stroke-width="1.2"/>
</svg>
