<svg width="13" height="14" viewBox="0 0 13 14" fill="none" xmlns="http://www.w3.org/2000/svg">
<path d="M1 5.40014C1 4.92192 1.2452 4.47425 1.65585 4.20274L4.73515 2.16684C5.37331 1.74492 5.69238 1.53396 6.0369 1.45196C6.34138 1.37949 6.65862 1.37949 6.9631 1.45196C7.30762 1.53396 7.62669 1.74492 8.26485 2.16684L11.3441 4.20274C11.7548 4.47425 12 4.92192 12 5.40014V11.5455C12 12.3488 11.3207 13 10.4828 13H2.51724C1.67929 13 1 12.3488 1 11.5455V5.40014Z" stroke="#8B8B9C" stroke-width="1.2" stroke-linejoin="round"/>
<path d="M4.7931 9C4.7931 8.59834 5.13275 8.27273 5.55172 8.27273H7.44828C7.86725 8.27273 8.2069 8.59834 8.2069 9V13H4.7931V9Z" stroke="#8B8B9C" stroke-width="1.2" stroke-linejoin="round"/>
</svg>
