<svg width="14" height="15" viewBox="0 0 14 15" fill="none" xmlns="http://www.w3.org/2000/svg">
<path fill-rule="evenodd" clip-rule="evenodd" d="M7 14.2C10.866 14.2 14 11.066 14 7.20001C14 3.33402 10.866 0.200012 7 0.200012C3.13401 0.200012 0 3.33402 0 7.20001C0 11.066 3.13401 14.2 7 14.2Z" fill="#FFC832"/>
<path fill-rule="evenodd" clip-rule="evenodd" d="M6.99977 5.06674C7.58888 5.06674 8.06644 4.58918 8.06644 4.00008C8.06644 3.41097 7.58888 2.93341 6.99977 2.93341C6.41067 2.93341 5.93311 3.41097 5.93311 4.00008C5.93311 4.58918 6.41067 5.06674 6.99977 5.06674ZM6.26518 10.8934C6.48657 11.1147 6.79228 11.2254 7.18234 11.2254H7.92556C8.07315 11.2254 8.14694 11.1622 8.14694 11.0357V7.38284C8.14694 6.99278 8.03625 6.68707 7.81487 6.46568C7.59348 6.2443 7.28776 6.13361 6.89771 6.13361H6.15449C6.0069 6.13361 5.93311 6.19686 5.93311 6.32336V9.97619C5.93311 10.3663 6.0438 10.672 6.26518 10.8934Z" fill="black"/>
</svg>
