<svg width="339" height="656" viewBox="0 0 339 656" fill="none" xmlns="http://www.w3.org/2000/svg">
<path d="M561.278 84.4927C630.013 117.824 649.97 145.576 690.384 275.183C730.797 404.791 791.667 636.254 821.929 765.228C852.353 894.237 853.426 920.603 840.659 941.134C827.892 961.665 797.818 975.328 764.776 978.832C731.572 982.302 708.67 978.911 584.008 949.957C459.346 921.004 236.714 867.592 117.789 825.534C-1.13567 783.477 -16.3543 752.773 14.0851 622.301C44.5245 491.828 120.945 261.655 169.072 136.855C217.2 12.0547 237.035 -7.37358 305.871 2.40308C374.706 12.1797 492.543 51.1612 561.278 84.4927Z" fill="#A5CD50"/>
</svg>
