<svg width="842" height="471" viewBox="0 0 842 471" fill="none" xmlns="http://www.w3.org/2000/svg">
<path d="M840.743 218.229C845.029 273.071 831.047 297.963 740.892 384.8C650.737 471.637 484.408 620.418 390.007 701.284C295.653 782.258 273.947 795.939 250.64 799.014C227.333 802.088 201.663 792.111 183.152 775.438C164.595 758.658 156.668 744.213 122.362 660.381C88.0555 576.548 28.2233 425.988 7.65689 338.849C-12.9094 251.71 5.78993 227.994 130.035 180.208C254.281 132.423 484.165 60.7825 611.961 25.6681C739.756 -9.44627 765.462 -8.03482 789.638 35.1736C813.813 78.3819 836.458 163.387 840.743 218.229Z" fill="#A5CD50"/>
</svg>
