<svg width="64" height="30" viewBox="0 0 64 30" fill="none" xmlns="http://www.w3.org/2000/svg">
<g id="Vibrant M" clip-path="url(#clip0_635_12871)">
<path id="Vector" d="M39.1053 13.2662C38.8116 13.1687 38.539 13.0181 38.3015 12.8223C36.9062 13.3462 35.4447 13.6808 33.9575 13.8168C33.9296 14.2859 33.7904 14.742 33.5511 15.1487L29.4283 22.0616C28.5534 23.3597 27.2916 24.36 25.8158 24.9253C26.2403 25.2893 26.6693 25.6356 27.0937 25.9598L27.3376 26.1462C28.0359 26.6736 28.7935 27.1205 29.5954 27.4782C29.9736 27.6445 30.3687 27.771 30.774 27.8556L30.3675 27.2251C29.9508 26.4969 29.7247 25.6782 29.7097 24.8427C29.6948 24.0072 29.8913 23.1812 30.2818 22.439L34.391 15.5927C34.8171 14.9289 35.4527 14.4205 36.2005 14.1455C36.9483 13.8705 37.7672 13.8439 38.5318 14.0699L47.5631 17.0712C47.8114 16.938 48.0643 16.8092 48.3172 16.6894C48.3623 16.6894 48.403 16.645 48.4436 16.6272H48.5023L48.7778 16.5118L39.1053 13.2662Z" fill="#FFC832"/>
<path id="Vector_2" d="M53.5328 0.768187L53.3206 0.96354H53.447C54.2923 1.0061 55.1128 1.25899 55.8315 1.69852C56.5502 2.13806 57.1437 2.74983 57.5562 3.47649L62.1667 12.6181C62.3385 12.9171 62.4354 13.2521 62.4494 13.5953C62.4634 13.9384 62.394 14.28 62.2471 14.5915C62.1001 14.9031 61.8797 15.1758 61.6043 15.3869C61.3288 15.5981 61.0061 15.7418 60.663 15.8059L55.3932 17.0846C55.0692 17.161 54.7403 17.2159 54.4088 17.2489C54.6864 17.5316 54.922 17.8515 55.1087 18.199C55.3298 18.092 55.5612 18.0072 55.7996 17.9459L60.9926 16.6806C61.5384 16.5513 62.1103 16.577 62.6419 16.7546C63.1734 16.9322 63.6428 17.2545 63.9955 17.684V13.2885C63.5625 13.0421 63.2161 12.672 63.0021 12.2274L58.4368 3.13462C58.2106 2.64674 58.0936 2.11683 58.0936 1.58068C58.0936 1.04452 58.2106 0.514613 58.4368 0.0267334H54.9417C54.8263 0.0271132 54.7114 0.0390143 54.5985 0.0622525H54.5714C54.5097 0.076792 54.4493 0.0960908 54.3908 0.11997L54.2824 0.164369C54.0048 0.329867 53.7524 0.533155 53.5328 0.768187Z" fill="#FFC832"/>
<path id="Vector_3" d="M9.29768 17.5773C9.34284 17.5196 9.39251 17.4708 9.44218 17.4131C9.49185 17.3553 9.54604 17.2932 9.60474 17.2355C9.87192 16.9685 10.1759 16.7399 10.5079 16.5562C10.6235 16.4908 10.7426 16.4315 10.8646 16.3786C10.7051 15.3381 10.7869 14.2757 11.1039 13.2707L13.294 7.24138C13.6693 6.33932 14.2723 5.54625 15.0461 4.9371L14.6848 4.60411L12.1787 2.30872C12.7754 3.77697 12.8549 5.39942 12.4044 6.91727L10.2369 12.9288C9.90242 13.7083 9.38999 14.4016 8.73929 14.9552C8.08859 15.5087 7.31707 15.9076 6.48444 16.1211L0.0090332 17.3909V18.3454L6.57476 17.0445C7.51815 16.887 8.4875 17.0767 9.29768 17.5773Z" fill="#FFC832"/>
<path id="Vector_4" d="M38.3015 12.8312C38.5396 13.0262 38.812 13.1767 39.1053 13.2752L48.7778 16.4807C49.5652 16.166 50.4069 16.0032 51.2569 16.0012C51.8384 15.982 52.4177 16.0817 52.9579 16.2942C53.4982 16.5067 53.9876 16.8272 54.3952 17.2355C54.7267 17.2025 55.0556 17.1476 55.3796 17.0712L60.6223 15.7926C60.9654 15.7284 61.2881 15.5848 61.5636 15.3736C61.8391 15.1624 62.0594 14.8897 62.2064 14.5782C62.3533 14.2666 62.4227 13.9251 62.4087 13.5819C62.3947 13.2387 62.2978 12.9038 62.126 12.6048L57.5471 3.47645C57.1339 2.75033 56.5403 2.13901 55.8217 1.69956C55.1031 1.26011 54.283 1.00688 53.4379 0.963501H53.3115L44.9711 8.59115C44.5195 8.99961 44.068 9.38588 43.6164 9.74994C42.271 10.8134 40.8022 11.7166 39.2408 12.4405C38.9337 12.5826 38.6176 12.7113 38.3015 12.8312Z" fill="#0F69AF"/>
<path id="Vector_5" d="M8.24547 29.7158L8.27257 29.6759C8.34541 29.5187 8.37945 29.3468 8.37191 29.1742V20.4144C8.36696 19.9653 8.42161 19.5176 8.53447 19.0824C8.67634 18.5261 8.93643 18.0056 9.29762 17.5551C8.48433 17.0539 7.51195 16.8643 6.56566 17.0224L-6.27991e-05 18.3454V25.3604C-0.0362134 25.9827 0.0563985 26.6057 0.27217 27.1918C0.487942 27.7779 0.82239 28.3148 1.25528 28.7702C1.39538 28.9075 1.54638 29.0337 1.70685 29.1476C2.23043 29.5158 2.83022 29.766 3.46342 29.8801C3.8769 29.9602 4.29735 30.0003 4.71877 30H7.64941C7.74921 30.0091 7.84981 29.9958 7.94366 29.9612C8.03751 29.9266 8.12217 29.8716 8.19129 29.8002C8.21104 29.7732 8.22914 29.745 8.24547 29.7158Z" fill="#0F69AF"/>
<path id="Vector_6" d="M38.5318 14.061C37.7663 13.8352 36.9465 13.8627 36.1984 14.1394C35.4503 14.4162 34.8153 14.9268 34.391 15.5928L30.2908 22.4745C29.9004 23.2168 29.7038 24.0428 29.7188 24.8783C29.7338 25.7137 29.9598 26.5325 30.3766 27.2607L30.783 27.8911C31.1826 27.9731 31.5896 28.0148 31.9977 28.0155C32.8229 28.0192 33.6392 27.8481 34.391 27.5138C35.1095 27.1886 35.792 26.7913 36.4276 26.3283L36.6759 26.1507C37.1817 25.7645 37.701 25.3604 38.2338 24.9164C38.4731 24.7122 38.7125 24.5035 38.9518 24.286C39.6382 23.6644 40.3411 23.0354 41.0606 22.3991L41.2864 22.1993L41.7379 21.8174C42.2858 21.3291 42.8593 20.7992 43.4584 20.228C43.9942 19.713 44.5527 19.2231 45.1337 18.7584C45.3685 18.566 45.6078 18.3795 45.8517 18.199L46.091 18.0303C46.5729 17.6841 47.0767 17.3682 47.5992 17.0846L38.5318 14.061Z" fill="#0F69AF"/>
<path id="Vector_7" d="M15.0415 4.93713C14.2613 5.54764 13.6546 6.34596 13.2804 7.25473L11.0903 13.2885C10.7732 14.2934 10.6913 15.3559 10.851 16.3964C11.4456 16.1401 12.0894 16.0129 12.7385 16.0234C12.9769 16.0233 13.2152 16.0367 13.452 16.0634C13.6326 16.0634 13.8178 16.1122 13.9984 16.1477C14.2901 16.205 14.5781 16.2792 14.8609 16.3697H14.9106C15.1273 16.4452 15.3395 16.5251 15.5518 16.6228C16.4848 17.0457 17.3677 17.5683 18.1844 18.1812C18.4327 18.3677 18.6811 18.563 18.925 18.7584C19.4939 19.2023 20.0493 19.704 20.5777 20.2102L20.8983 20.5121C21.5395 21.1159 22.1491 21.6753 22.7316 22.1815L24.3437 23.62L25.0617 24.2682C25.3101 24.4946 25.5629 24.7122 25.8113 24.9253C27.288 24.3615 28.5502 23.3609 29.4238 22.0616L33.5466 15.1488C33.7865 14.7423 33.9257 14.286 33.953 13.8168C33.3208 13.8745 32.666 13.9056 31.9932 13.9056C29.5058 13.9573 27.0379 13.4645 24.7682 12.4627C23.0663 11.6707 21.4744 10.6681 20.0313 9.47909C19.6926 9.19938 19.3539 8.91523 19.0243 8.61332L15.0415 4.93713Z" fill="#0F69AF"/>
<path id="Vector_8" d="M10.2369 12.9288L12.4135 6.93058C12.8639 5.41273 12.7844 3.79028 12.1877 2.32202L11.9167 2.07339C11.8174 1.96684 11.7045 1.8736 11.6006 1.77592C10.5622 0.839892 9.24819 0.252239 7.84816 0.0976649C7.39933 0.0358353 6.94669 0.00468171 6.49347 0.00442823H0.713469C0.657882 -0.000336754 0.601978 -0.000336754 0.546391 0.00442823H0.50575C0.470488 0.010681 0.435766 0.0195866 0.401891 0.031067C0.130953 0.133183 0 0.390694 0 0.803599V17.3908L6.46638 16.1077C7.30152 15.8994 8.07638 15.504 8.73045 14.9526C9.38452 14.4012 9.9001 13.7085 10.2369 12.9288Z" fill="#0F69AF"/>
<path id="Vector_9" d="M64 29.1742V17.6839C63.6467 17.2553 63.1772 16.9336 62.6459 16.7561C62.1145 16.5785 61.543 16.5523 60.9971 16.6805L55.8042 17.9458C55.5658 18.0071 55.3343 18.0919 55.1133 18.1989C55.4687 18.8857 55.6455 19.6484 55.6281 20.4188V25.3604C55.6194 25.9796 55.714 26.596 55.908 27.1851C56.1026 27.7822 56.4384 28.3254 56.8879 28.7702C57.4327 29.2981 58.1158 29.667 58.8612 29.8357C59.3507 29.9514 59.8526 30.008 60.3559 30.0044H63.2866C63.3422 30.0092 63.3981 30.0092 63.4536 30.0044C63.8149 29.9245 64 29.6581 64 29.1742Z" fill="#0F69AF"/>
<path id="Vector_10" d="M58.4412 3.13006L63.0065 12.2229C63.2231 12.6658 63.5689 13.0352 64 13.284V4.64849C64.0044 4.14304 63.9452 3.63899 63.8239 3.14782C63.6963 2.64064 63.4726 2.16164 63.1646 1.73595C63.0384 1.55797 62.898 1.3902 62.7446 1.23425C62.2812 0.809052 61.735 0.480494 61.139 0.26837C60.543 0.0562459 59.9095 -0.0350526 59.2766 -2.52593e-05H58.4638C58.2305 0.489184 58.1076 1.02227 58.1037 1.56259C58.0998 2.10291 58.215 2.63765 58.4412 3.13006Z" fill="#0F69AF"/>
</g>
<defs>
<clipPath id="clip0_635_12871">
<rect width="64" height="30" fill="white"/>
</clipPath>
</defs>
</svg>
