<svg width="35" height="32" viewBox="0 0 35 32" fill="none" xmlns="http://www.w3.org/2000/svg">
<path d="M24.1002 30.9997V4.3333C24.1002 3.44926 23.7525 2.60142 23.1336 1.9763C22.5147 1.35119 21.6754 1 20.8002 1H14.2002C13.3249 1 12.4856 1.35119 11.8667 1.9763C11.2478 2.60142 10.9002 3.44926 10.9002 4.3333V30.9997M4.3 7.66687H30.7C32.5225 7.66687 34 9.15924 34 11.0002V27.6667C34 29.5076 32.5225 31 30.7 31H4.3C2.47746 31 1 29.5076 1 27.6667V11.0002C1 9.15924 2.47746 7.66687 4.3 7.66687Z" stroke="#0F69AF" stroke-width="2" stroke-linecap="round" stroke-linejoin="round"/>
</svg>
