<svg width="24" height="24" viewBox="0 0 24 24" fill="none" xmlns="http://www.w3.org/2000/svg">
<path fill-rule="evenodd" clip-rule="evenodd" d="M6 2C3.79086 2 2 3.79086 2 6V18C2 20.2091 3.79086 22 6 22H18C20.2091 22 22 20.2091 22 18V6C22 3.79086 20.2091 2 18 2H6ZM12.1667 6.83353C12.7189 6.83353 13.1667 7.28124 13.1667 7.83353V11H16.3333C16.8856 11 17.3333 11.4477 17.3333 12C17.3333 12.5523 16.8856 13 16.3333 13H13.1667V16.1668C13.1667 16.7191 12.7189 17.1668 12.1667 17.1668C11.6144 17.1668 11.1667 16.7191 11.1667 16.1668V13H8C7.44772 13 7 12.5523 7 12C7 11.4477 7.44772 11 8 11H11.1667V7.83353C11.1667 7.28124 11.6144 6.83353 12.1667 6.83353Z" fill="#0F69AF"/>
</svg>
