<svg width="23" height="24" viewBox="0 0 23 24" fill="none" xmlns="http://www.w3.org/2000/svg">
<path d="M11.4583 14.8754C13.0463 14.8754 14.3336 13.5881 14.3336 12.0001C14.3336 10.4121 13.0463 9.12473 11.4583 9.12473C9.87031 9.12473 8.58298 10.4121 8.58298 12.0001C8.58298 13.5881 9.87031 14.8754 11.4583 14.8754Z" stroke="white" stroke-width="1.2" stroke-linecap="round" stroke-linejoin="round"/>
<path d="M18.5498 14.8749C18.4223 15.164 18.3842 15.4846 18.4406 15.7955C18.497 16.1064 18.6452 16.3932 18.8661 16.6191L18.9236 16.6766C19.1018 16.8546 19.2432 17.066 19.3396 17.2987C19.4361 17.5313 19.4857 17.7807 19.4857 18.0326C19.4857 18.2845 19.4361 18.5339 19.3396 18.7666C19.2432 18.9993 19.1018 19.2107 18.9236 19.3887C18.7456 19.5669 18.5342 19.7082 18.3015 19.8047C18.0688 19.9012 17.8194 19.9508 17.5675 19.9508C17.3157 19.9508 17.0663 19.9012 16.8336 19.8047C16.6009 19.7082 16.3895 19.5669 16.2115 19.3887L16.154 19.3312C15.9281 19.1102 15.6413 18.962 15.3304 18.9057C15.0195 18.8493 14.6989 18.8874 14.4098 19.0149C14.1264 19.1364 13.8847 19.3381 13.7144 19.5952C13.5441 19.8523 13.4527 20.1536 13.4515 20.462V20.6249C13.4515 21.1333 13.2496 21.6208 12.8901 21.9802C12.5307 22.3397 12.0432 22.5416 11.5348 22.5416C11.0265 22.5416 10.539 22.3397 10.1796 21.9802C9.82011 21.6208 9.61817 21.1333 9.61817 20.6249V20.5387C9.61075 20.2215 9.50808 19.9138 9.32349 19.6558C9.13891 19.3977 8.88096 19.2011 8.58317 19.0916C8.29412 18.964 7.97349 18.926 7.66261 18.9823C7.35173 19.0387 7.06486 19.1869 6.839 19.4078L6.7815 19.4653C6.6035 19.6435 6.39211 19.7849 6.15943 19.8814C5.92675 19.9778 5.67734 20.0275 5.42546 20.0275C5.17358 20.0275 4.92417 19.9778 4.69149 19.8814C4.45881 19.7849 4.24743 19.6435 4.06942 19.4653C3.89122 19.2873 3.74984 19.0759 3.65339 18.8433C3.55693 18.6106 3.50729 18.3612 3.50729 18.1093C3.50729 17.8574 3.55693 17.608 3.65339 17.3753C3.74984 17.1426 3.89122 16.9313 4.06942 16.7533L4.12692 16.6958C4.34785 16.4699 4.49606 16.183 4.55243 15.8722C4.60879 15.5613 4.57074 15.2406 4.44317 14.9516C4.32169 14.6681 4.11998 14.4264 3.86287 14.2561C3.60576 14.0859 3.30447 13.9945 2.99609 13.9933H2.83317C2.32484 13.9933 1.83733 13.7913 1.47788 13.4319C1.11844 13.0724 0.916504 12.5849 0.916504 12.0766C0.916504 11.5683 1.11844 11.0807 1.47788 10.7213C1.83733 10.3619 2.32484 10.1599 2.83317 10.1599H2.91942C3.23662 10.1525 3.54426 10.0498 3.80233 9.86524C4.06041 9.68066 4.25698 9.42271 4.3665 9.12492C4.49407 8.83587 4.53213 8.51523 4.47576 8.20436C4.41939 7.89348 4.27119 7.60661 4.05025 7.38075L3.99275 7.32325C3.81455 7.14525 3.67318 6.93386 3.57672 6.70118C3.48027 6.4685 3.43062 6.21909 3.43062 5.96721C3.43062 5.71533 3.48027 5.46592 3.57672 5.23324C3.67318 5.00056 3.81455 4.78918 3.99275 4.61117C4.17076 4.43296 4.38215 4.29159 4.61483 4.19514C4.84751 4.09868 5.09692 4.04904 5.3488 4.04904C5.60068 4.04904 5.85009 4.09868 6.08277 4.19514C6.31544 4.29159 6.52683 4.43296 6.70484 4.61117L6.76234 4.66867C6.9882 4.8896 7.27506 5.03781 7.58594 5.09417C7.89682 5.15054 8.21746 5.11249 8.5065 4.98492H8.58317C8.86662 4.86344 9.10835 4.66173 9.27863 4.40461C9.4489 4.1475 9.54027 3.84621 9.5415 3.53784V3.37492C9.5415 2.86659 9.74344 2.37908 10.1029 2.01963C10.4623 1.66019 10.9498 1.45825 11.4582 1.45825C11.9665 1.45825 12.454 1.66019 12.8135 2.01963C13.1729 2.37908 13.3748 2.86659 13.3748 3.37492V3.46117C13.3761 3.76955 13.4674 4.07084 13.6377 4.32795C13.808 4.58506 14.0497 4.78677 14.3332 4.90825C14.6222 5.03582 14.9429 5.07387 15.2537 5.01751C15.5646 4.96114 15.8515 4.81293 16.0773 4.592L16.1348 4.5345C16.3128 4.3563 16.5242 4.21493 16.7569 4.11847C16.9896 4.02202 17.239 3.97237 17.4909 3.97237C17.7428 3.97237 17.9922 4.02202 18.2248 4.11847C18.4575 4.21493 18.6689 4.3563 18.8469 4.5345C19.0251 4.71251 19.1665 4.9239 19.263 5.15658C19.3594 5.38925 19.4091 5.63866 19.4091 5.89054C19.4091 6.14242 19.3594 6.39183 19.263 6.62451C19.1665 6.85719 19.0251 7.06858 18.8469 7.24659L18.7894 7.30409C18.5685 7.52994 18.4203 7.81681 18.3639 8.12769C18.3076 8.43857 18.3456 8.7592 18.4732 9.04825V9.12492C18.5947 9.40836 18.7964 9.6501 19.0535 9.82038C19.3106 9.99065 19.6119 10.082 19.9203 10.0833H20.0832C20.5915 10.0833 21.079 10.2852 21.4385 10.6446C21.7979 11.0041 21.9998 11.4916 21.9998 11.9999C21.9998 12.5083 21.7979 12.9958 21.4385 13.3552C21.079 13.7147 20.5915 13.9166 20.0832 13.9166H19.9969C19.6885 13.9178 19.3873 14.0092 19.1301 14.1795C18.873 14.3497 18.6713 14.5915 18.5498 14.8749Z" stroke="white" stroke-width="1.2" stroke-linecap="round" stroke-linejoin="round"/>
</svg>
